# xmcd
#
# Track frame offsets:
# 150
# 36546
# 60182
# 94141
# 129650
# 159736
# 195682
# 234659
# 267915
# 295716
#
# Disc length: 4422 seconds
#
# Revision: 0
# Processed by: cddbd v1.4PL0 Copyright (c) Steve Scherf et al.
# Submitted via: Audion 3.0.2 (http://www.panic.com/audion/)
#
DISCID=8e11440a
DTITLE=Tobi - House - Dance 075
DYEAR=1900
DGENRE=
TTITLE0=Crystal Waters vs. Price is Right - Come on Down
TTITLE1=Dannii vs. Dead or Alive - Begin To Spin Me Around
TTITLE2=Deepest Blue - Deepest Blue
TTITLE3=Deux - Deux
TTITLE4=Jason Nevins pres. Holly James - I'm in Heaven
TTITLE5=Pink feat. William Orbit - Feel Good Time
TTITLE6=Praise Cats - Shined On Me
TTITLE7=Room 5 feat. Oliver Cheatham - Make Luv
TTITLE8=Sunny - Groovin
TTITLE9=Tom Novy feat. Lima - Without Your Love
EXTD=
EXTT0=
EXTT1=
EXTT2=
EXTT3=
EXTT4=
EXTT5=
EXTT6=
EXTT7=
EXTT8=
EXTT9=
PLAYORDER=
